<?xml version="1.0" encoding="utf-8"?>
<!-- Generator: Adobe Illustrator 25.3.1, SVG Export Plug-In . SVG Version: 6.00 Build 0)  -->
<svg version="1.1" id="Capa_1" xmlns="http://www.w3.org/2000/svg" xmlns:xlink="http://www.w3.org/1999/xlink" x="0px" y="0px"
	 viewBox="0 0 476.9 165.8" style="enable-background:new 0 0 476.9 165.8;" xml:space="preserve">
<style type="text/css">
	.st0{fill:#FFFFFF;}
</style>
<g>
	<path d="M43.5,107.1l7.7,13.6l-9,5.1L18.9,84.8l16.6-9.4c8.4-4.8,17.1-2.4,21.8,5.8c4.7,8.2,2.2,16.9-6.2,21.6L43.5,107.1z
		 M32.4,87.7l6.5,11.4l5.7-3.2c4.3-2.5,5.4-5.6,3.2-9.4c-2.2-3.8-5.4-4.5-9.7-2L32.4,87.7z"/>
	<path d="M77.4,106.6l-17-44l17-6.6c10.7-4.1,18.8-1.3,22.3,7.8c2.2,5.7,1.3,10.7-2.6,15.1l14.5,14.5l-10.5,4.1L88.5,84.6l-7.4,2.9
		l6,15.4L77.4,106.6z M77.8,79l7.3-2.8c4.2-1.6,5.8-4.7,4.4-8.5c-1.4-3.7-4.5-4.8-8.8-3.2l-7.4,2.9L77.8,79z"/>
	<path d="M117.4,91.9l-11.9-45.7l29-7.5l2.4,9.3l-19,4.9l2.3,9l16.9-4.4l2.3,8.8l-16.9,4.4L125,80l19-4.9l2.4,9.3L117.4,91.9z"/>
	<path d="M142.7,36.9l36.7-5.9l1.5,9.4l-13.2,2.1l6,37.2l-10.2,1.6l-6-37.2l-13.2,2.1L142.7,36.9z"/>
	<path d="M187.1,30.1l37-2.4l0.6,9.5l-13.4,0.9l2.5,37.6l-10.3,0.7l-2.5-37.6l-13.4,0.9L187.1,30.1z"/>
	<path d="M230,27.5l11.5,0.3l7.5,15.5c0.7,1.5,1.2,2.6,1.7,3.9c0.6-1.1,1.1-2.3,1.9-3.8l8.3-15l11.2,0.3l-16.7,28.9l-0.4,17.9
		L244.8,75l0.4-17.9L230,27.5z"/>
	<path d="M305,61.3l-2.8,18.2L292,77.9l7.1-46.7l29.7,4.5l-1.4,9.5l-19.5-3l-1.5,9.8l16.4,2.5l-1.4,9.2L305,61.3z"/>
	<path d="M320.7,81.9l27.7-41.8l9.8,2.4l4.9,49.8l-10.6-2.6l-0.8-10.5l-14.8-3.7l-5.7,8.8L320.7,81.9z M341.8,68l9,2.2L350,59.6
		c-0.1-1.7-0.2-3.6-0.1-4.8c-0.4,1-1.4,2.6-2.3,4.2L341.8,68z"/>
	<path d="M370.6,70c5.3-13.8,17.5-19.5,30.7-14.4c11,4.2,16.5,13.6,14.1,24l-10.2-3.9c0.4-4.9-2.4-8.8-7.7-10.9
		c-7.1-2.7-13.4,0.7-16.7,9.1c-3.2,8.3-0.8,15.2,6.3,17.9c5.4,2.1,10.4,0.9,13.3-3l10,3.8c-5.3,9.2-16,12.6-27,8.4
		C370.2,95.9,365.2,84,370.6,70z"/>
	<path d="M409,111l23.3-41l26.1,14.8l-4.7,8.3l-17.1-9.7l-4.6,8l15.1,8.6l-4.5,7.9l-15.1-8.6l-4.8,8.5l17.1,9.7l-4.7,8.3L409,111z"
		/>
</g>
<g>
	<path d="M68.5,40.1c-0.6,0-1-0.4-1-1c0-8.7-4.9-15.9-11-15.9c-0.6,0-1-0.4-1-1s0.4-1,1-1c6.1,0,11-7.1,11-15.9c0-0.6,0.4-1,1-1
		s1,0.4,1,1c0,8.7,4.9,15.9,11,15.9c0.6,0,1,0.4,1,1s-0.4,1-1,1c-6.1,0-11,7.1-11,15.9C69.5,39.6,69.1,40.1,68.5,40.1z M60.8,22.2
		c3.5,1.7,6.3,5.3,7.7,10c1.4-4.7,4.2-8.3,7.7-10c-3.5-1.7-6.3-5.3-7.7-10C67.1,16.9,64.3,20.5,60.8,22.2z"/>
</g>
<g>
	<g>
		<ellipse class="st0" cx="16.8" cy="83" rx="12" ry="16.9"/>
		<path d="M16.8,100.9c-0.6,0-1-0.4-1-1c0-8.7-4.9-15.9-11-15.9c-0.6,0-1-0.4-1-1s0.4-1,1-1c6.1,0,11-7.1,11-15.9c0-0.6,0.4-1,1-1
			s1,0.4,1,1c0,8.7,4.9,15.9,11,15.9c0.6,0,1,0.4,1,1s-0.4,1-1,1c-6.1,0-11,7.1-11,15.9C17.8,100.4,17.4,100.9,16.8,100.9z M9.1,83
			c3.5,1.7,6.3,5.3,7.7,10c1.4-4.7,4.2-8.3,7.7-10c-3.5-1.7-6.3-5.3-7.7-10C15.4,77.7,12.6,81.3,9.1,83z"/>
	</g>
</g>
<g>
	<path d="M387.1,161.7c-0.6,0-1-0.4-1-1c0-8.7-4.9-15.9-11-15.9c-0.6,0-1-0.4-1-1s0.4-1,1-1c6.1,0,11-7.1,11-15.9c0-0.6,0.4-1,1-1
		s1,0.4,1,1c0,8.7,4.9,15.9,11,15.9c0.6,0,1,0.4,1,1s-0.4,1-1,1c-6.1,0-11,7.1-11,15.9C388.1,161.3,387.7,161.7,387.1,161.7z
		 M379.4,143.9c3.5,1.7,6.3,5.3,7.7,10c1.4-4.7,4.2-8.3,7.7-10c-3.5-1.7-6.3-5.3-7.7-10C385.7,138.5,382.9,142.2,379.4,143.9z"/>
</g>
<path d="M111.4,124.8c-6.1,0-11-7.1-11-15.9c0-0.6-0.4-1-1-1s-1,0.4-1,1c0,8.7-4.9,15.9-11,15.9c-0.6,0-1,0.4-1,1s0.4,1,1,1
	c6.1,0,11,7.1,11,15.9c0,0.6,0.4,1,1,1s1-0.4,1-1c0-8.7,4.9-15.9,11-15.9c0.6,0,1-0.4,1-1S111.9,124.8,111.4,124.8z"/>
<path d="M387.1,25.1c-6.1,0-11-7.1-11-15.9c0-0.6-0.4-1-1-1s-1,0.4-1,1c0,8.7-4.9,15.9-11,15.9c-0.6,0-1,0.4-1,1s0.4,1,1,1
	c6.1,0,11,7.1,11,15.9c0,0.6,0.4,1,1,1s1-0.4,1-1c0-8.7,4.9-15.9,11-15.9c0.6,0,1-0.4,1-1S387.7,25.1,387.1,25.1z"/>
<path d="M117,140.7h-2.2v-2.2c0-0.3-0.2-0.5-0.5-0.5s-0.5,0.2-0.5,0.5v2.2h-2.2c-0.3,0-0.5,0.2-0.5,0.5s0.2,0.5,0.5,0.5h2.2v2.2
	c0,0.3,0.2,0.5,0.5,0.5s0.5-0.2,0.5-0.5v-2.2h2.2c0.3,0,0.5-0.2,0.5-0.5S117.3,140.7,117,140.7z"/>
<path d="M35.1,152.7h-2.2v-2.2c0-0.3-0.2-0.5-0.5-0.5s-0.5,0.2-0.5,0.5v2.2h-2.2c-0.3,0-0.5,0.2-0.5,0.5s0.2,0.5,0.5,0.5h2.2v2.2
	c0,0.3,0.2,0.5,0.5,0.5s0.5-0.2,0.5-0.5v-2.2h2.2c0.3,0,0.5-0.2,0.5-0.5S35.4,152.7,35.1,152.7z"/>
<g>
	<g>
		<line x1="409" y1="31.6" x2="409" y2="37"/>
		<path d="M409,37.5c-0.3,0-0.5-0.2-0.5-0.5v-5.4c0-0.3,0.2-0.5,0.5-0.5s0.5,0.2,0.5,0.5V37C409.5,37.2,409.3,37.5,409,37.5z"/>
	</g>
	<g>
		<line x1="406.3" y1="34.3" x2="411.7" y2="34.3"/>
		<path d="M411.7,34.8h-5.4c-0.3,0-0.5-0.2-0.5-0.5s0.2-0.5,0.5-0.5h5.4c0.3,0,0.5,0.2,0.5,0.5S412,34.8,411.7,34.8z"/>
	</g>
</g>
<path d="M373.8,118h-2.2v-2.2c0-0.3-0.2-0.5-0.5-0.5s-0.5,0.2-0.5,0.5v2.2h-2.2c-0.3,0-0.5,0.2-0.5,0.5s0.2,0.5,0.5,0.5h2.2v2.2
	c0,0.3,0.2,0.5,0.5,0.5s0.5-0.2,0.5-0.5V119h2.2c0.3,0,0.5-0.2,0.5-0.5S374.1,118,373.8,118z"/>
<path d="M227.5,82.5h-2.2v-5c0-0.3-0.2-0.5-0.5-0.5s-0.5,0.2-0.5,0.5v5h-2.2c-0.3,0-0.5,0.2-0.5,0.5s0.2,0.5,0.5,0.5h2.2v5
	c0,0.3,0.2,0.5,0.5,0.5s0.5-0.2,0.5-0.5v-5h2.2c0.3,0,0.5-0.2,0.5-0.5S227.8,82.5,227.5,82.5z"/>
<path d="M294.7,21.7h-2.2v-5c0-0.3-0.2-0.5-0.5-0.5s-0.5,0.2-0.5,0.5v5h-2.2c-0.3,0-0.5,0.2-0.5,0.5s0.2,0.5,0.5,0.5h2.2v5
	c0,0.3,0.2,0.5,0.5,0.5s0.5-0.2,0.5-0.5v-5h2.2c0.3,0,0.5-0.2,0.5-0.5S295,21.7,294.7,21.7z"/>
<g>
	<g>
		<line x1="452.7" y1="133.4" x2="452.7" y2="138.8"/>
		<path d="M452.7,139.3c-0.3,0-0.5-0.2-0.5-0.5v-5.4c0-0.3,0.2-0.5,0.5-0.5s0.5,0.2,0.5,0.5v5.4C453.2,139.1,453,139.3,452.7,139.3z
			"/>
	</g>
	<g>
		<line x1="450" y1="136.1" x2="455.4" y2="136.1"/>
		<path d="M455.4,136.6H450c-0.3,0-0.5-0.2-0.5-0.5s0.2-0.5,0.5-0.5h5.4c0.3,0,0.5,0.2,0.5,0.5S455.7,136.6,455.4,136.6z"/>
	</g>
</g>
<path d="M92.7,38.2h-2.2V36c0-0.3-0.2-0.5-0.5-0.5s-0.5,0.2-0.5,0.5v2.2h-2.2c-0.3,0-0.5,0.2-0.5,0.5s0.2,0.5,0.5,0.5h2.2v2.2
	c0,0.3,0.2,0.5,0.5,0.5s0.5-0.2,0.5-0.5v-2.2h2.2c0.3,0,0.5-0.2,0.5-0.5S93,38.2,92.7,38.2z"/>
<g>
	<g>
		<ellipse class="st0" cx="458.4" cy="78.3" rx="12" ry="16.9"/>
		<path d="M458.4,96.2c-0.6,0-1-0.4-1-1c0-8.7-4.9-15.9-11-15.9c-0.6,0-1-0.4-1-1s0.4-1,1-1c6.1,0,11-7.1,11-15.9c0-0.6,0.4-1,1-1
			s1,0.4,1,1c0,8.7,4.9,15.9,11,15.9c0.6,0,1,0.4,1,1s-0.4,1-1,1c-6.1,0-11,7.1-11,15.9C459.4,95.7,458.9,96.2,458.4,96.2z
			 M450.7,78.3c3.5,1.7,6.3,5.3,7.7,10c1.4-4.7,4.2-8.3,7.7-10c-3.5-1.7-6.3-5.3-7.7-10C457,73,454.1,76.6,450.7,78.3z"/>
	</g>
</g>
</svg>
